<?xml version="1.0" encoding="utf-8"?>
<svg width="1440px" height="758px" viewBox="0 0 1440 758" version="1.1" xmlns:xlink="http://www.w3.org/1999/xlink" xmlns="http://www.w3.org/2000/svg">
  <defs>
    <radialGradient gradientUnits="objectBoundingBox" cx="50%" cy="50%" fx="50%" fy="50%" r="50%" gradientTransform="translate(0.5,0.5),rotate(90),translate(-0.5,-0.5)" id="gradient_1">
      <stop offset="0%" stop-color="#6D5959" />
      <stop offset="100%" stop-color="#000000" />
    </radialGradient>
    <linearGradient gradientUnits="objectBoundingBox" x1="0.5" y1="0" x2="0.5" y2="1" id="gradient_2">
      <stop offset="55.5466%" stop-color="#FCCF14" />
      <stop offset="57.712914%" stop-color="#FBB400" />
    </linearGradient>
    <linearGradient gradientUnits="objectBoundingBox" x1="0.5" y1="0" x2="0.5" y2="1" id="gradient_3">
      <stop offset="33.783783%" stop-color="#FFFFFF" />
      <stop offset="80.18018%" stop-color="#BEBEBE" />
    </linearGradient>
    <filter filterUnits="userSpaceOnUse" color-interpolation-filters="sRGB" id="filter_1">
      <feFlood flood-opacity="0" result="BackgroundImageFix" />
      <feBlend mode="normal" in="SourceGraphic" in2="BackgroundImageFix" result="shape" />
      <feGaussianBlur stdDeviation="5.5" result="effect0_gaussianBlur" />
    </filter>
    <filter filterUnits="userSpaceOnUse" color-interpolation-filters="sRGB" id="filter_2">
      <feFlood flood-opacity="0" result="BackgroundImageFix" />
      <feBlend mode="normal" in="SourceGraphic" in2="BackgroundImageFix" result="shape" />
      <feGaussianBlur stdDeviation="4.5" result="effect0_gaussianBlur" />
    </filter>
    <filter filterUnits="userSpaceOnUse" color-interpolation-filters="sRGB" id="filter_3">
      <feFlood flood-opacity="0" result="BackgroundImageFix" />
      <feBlend mode="normal" in="SourceGraphic" in2="BackgroundImageFix" result="shape" />
      <feGaussianBlur stdDeviation="8.5" result="effect0_gaussianBlur" />
    </filter>
    <path d="M1440 0L1440 0L1440 758L0 758L0 0L1440 0Z" id="path_1" />
    <g transform="translate(0, 60.369316)" id="path_2">
      <path d="M182.884 151.278Q182.884 181.019 171.653 201.882Q160.423 222.745 141.158 233.709Q121.893 244.673 97.745 244.673Q73.5085 244.673 54.2436 233.665Q34.9787 222.656 23.7926 201.749Q12.6065 180.842 12.6065 151.278Q12.6065 121.538 23.7926 100.675Q34.9787 79.8118 54.2436 68.8477Q73.5085 57.8835 97.745 57.8835Q121.893 57.8835 141.158 68.8477Q160.423 79.8118 171.653 100.675Q182.884 121.538 182.884 151.278ZM143.91 151.278Q143.91 122.337 131.303 107.111Q118.697 91.8857 97.745 91.8857Q76.7933 91.8857 64.1868 107.111Q51.5803 122.337 51.5803 151.278Q51.5803 180.131 64.1868 195.401Q76.7933 210.671 97.745 210.671Q118.697 210.671 131.303 195.401Q143.91 180.131 143.91 151.278Z" />
    </g>
    <g transform="translate(0, 49.985794)" id="path_3">
      <path d="M151.428 125.259Q151.428 149.884 142.129 167.158Q132.83 184.433 116.879 193.511Q100.927 202.589 80.9329 202.589Q60.8651 202.589 44.9137 193.474Q28.9624 184.359 19.7003 167.048Q10.4382 149.737 10.4382 125.259Q10.4382 100.633 19.7003 83.3587Q28.9624 66.0842 44.9137 57.0059Q60.8651 47.9276 80.9329 47.9276Q100.927 47.9276 116.879 57.0059Q132.83 66.0842 142.129 83.3587Q151.428 100.633 151.428 125.259ZM119.157 125.259Q119.157 101.295 108.719 88.688Q98.2809 76.0813 80.9329 76.0813Q63.5849 76.0813 53.1467 88.688Q42.7085 101.295 42.7085 125.259Q42.7085 149.149 53.1467 161.792Q63.5849 174.436 80.9329 174.436Q98.2809 174.436 108.719 161.792Q119.157 149.149 119.157 125.259Z" />
    </g>
    <g transform="translate(0, 36.221592)" id="path_4">
      <path d="M31.108 36.2216L53.1072 73.402L53.9595 73.402L76.0653 36.2216L102.113 36.2216L68.821 90.767L102.859 145.313L76.3317 145.313L53.9595 108.079L53.1072 108.079L30.7351 145.313L4.31463 145.313L38.4588 90.767L4.95384 36.2216L31.108 36.2216Z" />
    </g>
    <g transform="translate(0, 96.59091)" id="path_5">
      <path d="M82.9546 96.5909L141.619 195.739L143.892 195.739L202.841 96.5909L272.301 96.5909L183.523 242.045L274.29 387.5L203.551 387.5L143.892 288.21L141.619 288.21L81.9602 387.5L11.5057 387.5L102.557 242.045L13.2102 96.5909L82.9546 96.5909Z" />
    </g>
    <g transform="translate(0, 23.181818)" id="path_6">
      <path d="M3.40909 35.3523L3.40909 23.1818L60.75 23.1818L60.75 35.3523L39.375 35.3523L39.375 93L24.7841 93L24.7841 35.3523L3.40909 35.3523ZM69.9546 93L69.9546 40.6364L84.4773 40.6364L84.4773 93L69.9546 93ZM77.25 33.8864Q74.0455 33.8864 71.7273 31.7216Q69.4091 29.5568 69.4091 26.5227Q69.4091 23.4886 71.7273 21.3409Q74.0455 19.1932 77.25 19.1932Q80.4886 19.1932 82.8068 21.3409Q85.125 23.4886 85.125 26.5227Q85.125 29.5568 82.8068 31.7216Q80.4886 33.8864 77.25 33.8864ZM119.727 94.0227Q111.682 94.0227 105.903 90.5966Q100.125 87.1705 97.0398 81.0682Q93.9546 74.9659 93.9546 67.0227Q93.9546 58.9773 97.0739 52.892Q100.193 46.8068 105.955 43.3807Q111.716 39.9546 119.659 39.9545Q126.511 39.9545 131.676 42.4432Q136.841 44.9318 139.824 49.4318Q142.807 53.9318 143.114 60L129.409 60Q128.83 56.0795 126.358 53.6761Q123.886 51.2727 119.898 51.2727Q114.852 51.2727 111.784 55.3295Q108.716 59.3864 108.716 66.8182Q108.716 74.3182 111.767 78.4261Q114.818 82.5341 119.898 82.5341Q123.648 82.5341 126.205 80.267Q128.761 78 129.409 73.8068L143.114 73.8068Q142.773 79.8068 139.858 84.375Q136.943 88.9432 131.83 91.483Q126.716 94.0227 119.727 94.0227Z" />
    </g>
    <g transform="translate(0, 23.181818)" id="path_7">
      <path d="M3.40909 35.3523L3.40909 23.1818L60.75 23.1818L60.75 35.3523L39.375 35.3523L39.375 93L24.7841 93L24.7841 35.3523L3.40909 35.3523ZM77.7955 93.9886Q70.2955 93.9886 65.3523 90.0682Q60.4091 86.1477 60.4091 78.375Q60.4091 72.5114 63.1705 69.1705Q65.9318 65.8295 70.4148 64.2784Q74.8977 62.7273 80.0795 62.25Q86.8977 61.5682 89.8295 60.8182Q92.7614 60.0682 92.7614 57.5455L92.7614 57.3409Q92.7614 54.1023 90.733 52.3295Q88.7046 50.5568 84.9886 50.5568Q81.0682 50.5568 78.75 52.2614Q76.4318 53.9659 75.6818 56.5909L62.25 55.5Q63.75 48.3409 69.6989 44.1477Q75.6477 39.9546 85.0568 39.9545Q90.8864 39.9545 95.9659 41.7955Q101.045 43.6364 104.165 47.5398Q107.284 51.4432 107.284 57.6818L107.284 93L93.5114 93L93.5114 85.7386L93.1023 85.7386Q91.1932 89.3864 87.392 91.6875Q83.5909 93.9886 77.7955 93.9886ZM81.9545 83.9659Q86.7273 83.9659 89.7955 81.1875Q92.8636 78.4091 92.8636 74.2841L92.8636 68.7273Q92.0114 69.3068 90.2216 69.75Q88.4318 70.1932 86.4034 70.517Q84.375 70.8409 82.7727 71.0795Q78.9545 71.625 76.6193 73.2273Q74.2841 74.8295 74.2841 77.8977Q74.2841 80.8977 76.4489 82.4318Q78.6136 83.9659 81.9545 83.9659ZM142.227 94.0227Q134.182 94.0227 128.403 90.5966Q122.625 87.1705 119.54 81.0682Q116.455 74.9659 116.455 67.0227Q116.455 58.9773 119.574 52.892Q122.693 46.8068 128.455 43.3807Q134.216 39.9546 142.159 39.9545Q149.011 39.9545 154.176 42.4432Q159.341 44.9318 162.324 49.4318Q165.307 53.9318 165.614 60L151.909 60Q151.33 56.0795 148.858 53.6761Q146.386 51.2727 142.398 51.2727Q137.352 51.2727 134.284 55.3295Q131.216 59.3864 131.216 66.8182Q131.216 74.3182 134.267 78.4261Q137.318 82.5341 142.398 82.5341Q146.148 82.5341 148.705 80.267Q151.261 78 151.909 73.8068L165.614 73.8068Q165.273 79.8068 162.358 84.375Q159.443 88.9432 154.33 91.483Q149.216 94.0227 142.227 94.0227Z" />
    </g>
    <g transform="translate(0, 84.517044)" id="path_8">
      <path d="M190.909 166.797Q185.813 148.899 172.079 138.77Q158.345 128.64 137.589 128.64Q108.381 128.64 90.2965 150.204Q72.2124 171.768 72.2124 211.541Q72.2124 251.438 89.9858 273.189Q107.759 294.94 138.086 294.94Q164.933 294.94 180.282 280.957Q195.632 266.974 196.129 243.359L141.442 243.359L141.442 202.841L247.958 202.841L247.958 234.908Q247.958 268.342 233.789 292.516Q219.62 316.69 194.824 329.616Q170.028 342.543 137.837 342.543Q102.042 342.543 74.9467 326.696Q47.8516 310.849 32.7504 281.578Q17.6491 252.308 17.6491 212.038Q17.6491 170.774 33.4339 141.442Q49.2187 112.109 76.1896 96.5731Q103.16 81.037 136.719 81.0369Q165.554 81.037 188.92 91.9744Q212.287 102.912 227.202 122.239Q242.116 141.566 245.597 166.797L190.909 166.797ZM522.266 211.79Q522.266 253.427 506.543 282.635Q490.82 311.843 463.849 327.193Q436.879 342.543 403.072 342.543Q369.141 342.543 342.17 327.131Q315.199 311.719 299.538 282.449Q283.878 253.178 283.878 211.79Q283.878 170.153 299.538 140.945Q315.199 111.736 342.17 96.3867Q369.141 81.037 403.072 81.0369Q436.879 81.037 463.849 96.3867Q490.82 111.736 506.543 140.945Q522.266 170.153 522.266 211.79ZM467.702 211.79Q467.702 171.271 450.053 149.956Q432.404 128.64 403.072 128.64Q373.739 128.64 356.09 149.956Q338.441 171.271 338.441 211.79Q338.441 252.184 356.09 273.562Q373.739 294.94 403.072 294.94Q432.404 294.94 450.053 273.562Q467.702 252.184 467.702 211.79ZM624.308 84.517L619.46 262.749L573.97 262.749L568.999 84.517L624.308 84.517ZM596.715 342.294Q584.411 342.294 575.586 333.594Q566.761 324.893 566.886 312.464Q566.761 300.284 575.586 291.584Q584.411 282.884 596.715 282.884Q608.647 282.884 617.534 291.584Q626.42 300.284 626.545 312.464Q626.42 324.893 617.534 333.594Q608.647 342.294 596.715 342.294Z" />
    </g>
    <clipPath id="clip_1">
      <use xlink:href="#path_1" clip-rule="evenodd" fill-rule="evenodd" />
    </clipPath>
  </defs>
  <g id="MacBook Pro 15&quot; Copy">
    <path d="M1440 0L1440 0L1440 758L0 758L0 0L1440 0Z" id="MacBook-Pro-15-Copy" fill="url(#gradient_1)" stroke="none" />
    <g id="O" transform="matrix(0.89879405 0.43837112 -0.43837112 0.89879405 219.12596 391)" clip-path="url(#clip_1)">
      <g id="O" filter="url(#filter_1)">
        <use xlink:href="#path_2" fill="none" stroke="#000000" stroke-width="22" />
        <use stroke="none" fill="url(#gradient_2)" xlink:href="#path_2" />
      </g>
    </g>
    <g id="O-Copy" transform="translate(1100 -75)" clip-path="url(#clip_1)">
      <g id="O" filter="url(#filter_1)">
        <use xlink:href="#path_3" fill="none" stroke="#000000" stroke-width="22" />
        <use stroke="none" fill="url(#gradient_2)" xlink:href="#path_3" />
      </g>
    </g>
    <g id="X" transform="matrix(0.8571673 -0.5150381 0.5150381 0.8571673 130.53305 81.85896)" clip-path="url(#clip_1)">
      <g id="X" filter="url(#filter_2)">
        <use xlink:href="#path_4" fill="none" stroke="#000000" stroke-width="22" />
        <use stroke="none" fill="url(#gradient_2)" xlink:href="#path_4" />
      </g>
    </g>
    <g id="X-Copy" transform="matrix(0.86602545 0.49999994 -0.49999994 0.86602545 1214 328)" clip-path="url(#clip_1)">
      <g id="X" filter="url(#filter_3)">
        <use xlink:href="#path_5" fill="none" stroke="#000000" stroke-width="26" />
        <use stroke="none" fill="url(#gradient_2)" xlink:href="#path_5" />
      </g>
    </g>
    <g id="Tic" transform="matrix(0.9945219 -0.10452846 0.10452846 0.9945219 511 137)" clip-path="url(#clip_1)">
      <g id="Tic">
        <use xlink:href="#path_6" fill="none" stroke="#000000" stroke-width="10" />
        <use stroke="none" fill="url(#gradient_3)" xlink:href="#path_6" />
      </g>
    </g>
    <g id="Tac" transform="matrix(0.9945219 -0.10452846 0.10452846 0.9945219 658 129)" clip-path="url(#clip_1)">
      <g id="Tac">
        <use xlink:href="#path_7" fill="none" stroke="#000000" stroke-width="10" />
        <use stroke="none" fill="url(#gradient_3)" xlink:href="#path_7" />
      </g>
    </g>
    <g id="GO!" transform="matrix(0.9986295 -0.05233596 0.05233596 0.9986295 395 186)" clip-path="url(#clip_1)">
      <g id="GO!">
        <use xlink:href="#path_8" fill="none" stroke="#FFFFFF" stroke-width="22" />
        <use stroke="none" fill="url(#gradient_2)" xlink:href="#path_8" />
      </g>
    </g>
  </g>
</svg>